<svg width="802" height="393" viewBox="0 0 802 393" fill="none" xmlns="http://www.w3.org/2000/svg">
<path d="M750.69 64.4237C768.743 64.7411 783.629 50.7052 783.939 33.0738C784.248 15.4423 769.864 0.891943 751.811 0.574612C733.757 0.257281 718.871 14.2931 718.562 31.9246C718.252 49.556 732.636 64.1064 750.69 64.4237Z" fill="url(#paint0_linear)"/>
<path fill-rule="evenodd" clip-rule="evenodd" d="M129.031 86.5554C138.233 87.789 147.678 94.6969 144.288 109.006C140.897 123.315 119.344 212.378 119.344 212.378C119.686 212.298 120.162 212.178 120.716 212.039C121.751 211.779 123.055 211.451 124.257 211.185C125.459 210.92 126.557 210.717 127.18 210.707C132.164 210.625 138.041 212.36 140.957 217.574C145.947 226.495 142.522 240.187 132.179 246.424C130.474 247.727 128.549 249.085 126.522 250.454C123.178 252.713 119.556 255.005 116.176 257.143L116.061 257.215C115.665 257.466 115.272 257.715 114.884 257.961L114.877 257.965C112.91 259.21 111.053 260.393 109.416 261.473L95.3825 331.272C92.7549 342.901 89.1731 352.722 84.6228 360.802L84.6138 360.817C80.1348 368.703 74.9985 375.135 69.3087 380.022C59.1429 388.754 45.9844 393.093 32.7095 392.026L32.6755 392.023L32.6415 392.02C20.1563 390.836 10.7737 382.862 4.80003 371.507C-4.88651 353.093 0.927313 320.437 14.7289 299.714C29.5827 277.41 50.8975 257.636 72.8487 242.723L79.0023 214.591C76.313 216.011 73.5166 217.289 70.6208 218.42C63.4914 221.202 55.8358 222.162 47.8152 221.486C38.935 220.727 31.1692 218.151 24.8565 213.73L24.8369 213.717L24.8174 213.703C18.6908 209.322 13.8809 203.719 10.5757 196.774C7.32389 189.94 5.48825 182.139 5.1319 173.552C4.78814 165.008 5.61434 156.061 7.7471 146.583C11.8413 128.274 18.5031 111.936 27.6935 97.6972C36.7945 83.5964 47.3007 71.7641 59.3868 62.2843C71.4059 52.857 84.2888 45.8542 98.0923 41.5043C111.864 37.0902 125.54 35.4557 139.087 36.6593L139.101 36.6605L139.115 36.6619C145.742 37.2904 151.39 39.613 155.322 44.3256C159.465 49.2906 160.251 55.5915 158.744 62.358C155.669 75.2067 146.304 74.7897 133.789 73.596C126.528 72.981 118.712 73.9273 110.143 76.5509C101.721 79.2031 93.6256 83.6376 85.7724 90.0074C77.9811 96.327 70.7663 104.686 64.2475 115.111C57.8471 125.347 52.8859 137.918 49.5226 152.93L49.5186 152.947C47.0891 163.612 47.4943 171.173 49.7507 176.199L49.7561 176.211L49.7614 176.223C50.8864 178.765 52.3515 180.523 54.0962 181.732C55.8594 182.953 58.1643 183.791 61.2072 184.079C64.3857 184.381 67.3394 183.658 70.3225 181.864C73.5997 179.892 76.6784 177.247 79.6164 173.861C82.5883 170.436 85.1936 166.665 87.5837 162.386C89.9034 158.095 91.9146 154.016 93.6319 150.079C93.6319 150.079 102.877 119.368 106.51 105.305C110.142 91.2429 119.829 85.3219 129.031 86.5554ZM50.258 307.183C43.5913 315.228 38.5217 323.898 35.0709 334.253C32.44 342.148 30.9541 352.631 39.3969 355.145C47.8397 357.659 53.2885 341.714 56.8657 329.566C58.682 323.398 65.3415 299.96 67.7632 289.845C64.1715 292.908 60.8299 295.946 57.7399 299.024C55.056 301.698 52.5616 304.403 50.258 307.183Z" fill="url(#paint1_linear)"/>
<path fill-rule="evenodd" clip-rule="evenodd" d="M236.689 171.451C252.614 163.967 264.417 151.968 272.86 138.504C284.208 120.409 281.248 96.8566 261.432 84.7907C236.61 69.6764 204.382 77.7439 184.856 94.0303C162.858 111.537 155.187 132.734 150.922 159.295C146.658 185.856 160.387 216.269 184.853 229.663C210.721 243.824 237.313 241.133 252.335 235.801C262.697 232.123 270.218 227.365 276.01 222.198C278.109 228.381 283.324 233.329 290.177 234.773C300.507 236.95 310.646 230.34 312.823 220.01L328.464 145.778C331.432 129.061 343.038 122.016 355.538 125.561C368.038 129.105 370.3 138.561 368.257 152.079L355.538 212.449C353.361 222.779 359.97 232.918 370.3 235.094C380.63 237.271 390.769 230.661 392.946 220.332L407.432 152.079C410.932 134.561 421.885 126.49 432.17 129.061C442.454 131.632 446.932 143.061 445.257 152.079L432.538 212.449C432.163 214.229 432.048 216.003 432.17 217.732C432.059 220.097 432.39 222.523 433.216 224.897C436.687 234.867 447.583 240.136 457.553 236.665L483.607 227.595C486.957 226.429 489.776 224.424 491.911 221.898C493.941 228.221 499.214 233.306 506.177 234.773C516.507 236.95 526.646 230.34 528.823 220.01L544.464 145.778C547.432 129.061 559.038 122.016 571.538 125.561C584.038 129.105 586.3 138.561 584.257 152.079L571.538 212.449C569.361 222.779 575.97 232.918 586.3 235.094C596.63 237.271 606.769 230.661 608.946 220.332L623.432 152.079C626.932 134.561 637.885 126.49 648.17 129.061C658.454 131.632 662.932 143.061 661.257 152.079L648.538 212.449C648.163 214.229 648.048 216.003 648.17 217.732C648.059 220.097 648.39 222.523 649.216 224.897C652.687 234.867 663.583 240.136 673.553 236.665L699.607 227.595C703.5 226.24 706.676 223.752 708.895 220.63C712.844 230.513 721.146 238.206 733.368 240.133C783.459 248.03 784.344 218.918 776.27 210.603C771.117 205.295 766.726 206.662 761.477 208.296C758.503 209.222 755.254 210.234 751.434 210.167C742.806 210.015 741.076 208.681 742.161 202.086C742.161 202.086 759.027 108.173 759.193 98.7256C759.359 89.2785 750.303 83.7557 743 82.6057C735.698 81.4558 726.193 85.2277 724.444 96.8378L707.35 196.551C703.509 192.408 697.959 190.127 692.242 190.453L702.55 141.527C707.545 117.849 693.594 91.8821 669.09 86.8487C649.884 82.9034 630.865 93.0403 621.644 110.484C615.968 98.8211 605.644 89.6329 592.09 86.8487C576.832 83.7142 561.691 89.4683 551.488 100.713C549.495 94.3177 544.193 89.1605 537.172 87.681C526.841 85.5042 516.703 92.1138 514.526 102.444L493.948 200.104C490.353 193.753 483.43 190.043 476.242 190.453L486.55 141.527C491.545 117.849 477.594 91.8821 453.09 86.8487C433.884 82.9034 414.865 93.0403 405.644 110.484C399.968 98.8211 389.644 89.6329 376.09 86.8487C360.832 83.7142 345.691 89.4683 335.488 100.713C333.495 94.3177 328.193 89.1605 321.171 87.681C310.841 85.5042 300.703 92.1138 298.526 102.444L280.896 186.115C275.965 181.817 269.03 181.073 261.466 189.421C251.202 200.749 233.882 206.852 216.703 205.152C199.525 203.453 185.711 195.464 186.21 181.28C205.579 180.817 219.549 178.374 236.689 171.451ZM205.319 150.103C199.922 151.04 195.088 150.852 188.977 150.56C195.262 129.768 205.678 119.208 213.16 114.613C220.643 110.017 232.954 106.991 240.3 113.425C247.646 119.86 239.964 130.884 234.552 135.77C230.329 139.535 225.751 142.63 220.816 145.057C215.882 147.483 210.716 149.165 205.319 150.103Z" fill="url(#paint2_linear)"/>
<defs>
<linearGradient id="paint0_linear" x1="639.544" y1="37.1951" x2="546.339" y2="465.157" gradientUnits="userSpaceOnUse">
<stop stop-color="#00E4BB"/>
<stop offset="1" stop-color="#00A6BD"/>
</linearGradient>
<linearGradient id="paint1_linear" x1="639.544" y1="37.1951" x2="546.339" y2="465.157" gradientUnits="userSpaceOnUse">
<stop stop-color="#00E4BB"/>
<stop offset="1" stop-color="#00A6BD"/>
</linearGradient>
<linearGradient id="paint2_linear" x1="639.544" y1="37.1951" x2="546.339" y2="465.157" gradientUnits="userSpaceOnUse">
<stop stop-color="#00E4BB"/>
<stop offset="1" stop-color="#00A6BD"/>
</linearGradient>
</defs>
</svg>
